<svg width="24" height="27" viewBox="0 0 24 27" fill="none"
    xmlns="http://www.w3.org/2000/svg">
    <g clip-path="url(#clip0_3321_10908)">
        <path d="M12.3697 7.32315C9.06648 7.32315 6.40207 9.98756 6.40207 13.2908C6.40207 16.5941 9.06648 19.2585 12.3697 19.2585C15.673 19.2585 18.3374 16.5941 18.3374 13.2908C18.3374 9.98756 15.673 7.32315 12.3697 7.32315ZM12.3697 17.1706C10.2351 17.1706 8.48997 15.4306 8.48997 13.2908C8.48997 11.151 10.2299 9.41105 12.3697 9.41105C14.5096 9.41105 16.2495 11.151 16.2495 13.2908C16.2495 15.4306 14.5044 17.1706 12.3697 17.1706ZM19.9734 7.07904C19.9734 7.85291 19.3502 8.47097 18.5815 8.47097C17.8076 8.47097 17.1896 7.84772 17.1896 7.07904C17.1896 6.31036 17.8128 5.6871 18.5815 5.6871C19.3502 5.6871 19.9734 6.31036 19.9734 7.07904ZM23.9259 8.49175C23.8376 6.62718 23.4117 4.97556 22.0458 3.61478C20.685 2.25401 19.0334 1.82812 17.1688 1.73463C15.2471 1.62556 9.48718 1.62556 7.56548 1.73463C5.7061 1.82293 4.05448 2.24882 2.68851 3.60959C1.32255 4.97036 0.901853 6.62199 0.808365 8.48655C0.699295 10.4083 0.699295 16.1682 0.808365 18.0899C0.896659 19.9544 1.32255 21.6061 2.68851 22.9668C4.05448 24.3276 5.70091 24.7535 7.56548 24.847C9.48718 24.956 15.2471 24.956 17.1688 24.847C19.0334 24.7587 20.685 24.3328 22.0458 22.9668C23.4065 21.6061 23.8324 19.9544 23.9259 18.0899C24.035 16.1682 24.035 10.4134 23.9259 8.49175ZM21.4433 20.1518C21.0382 21.1698 20.2539 21.954 19.2307 22.3643C17.6986 22.972 14.0629 22.8318 12.3697 22.8318C10.6766 22.8318 7.03571 22.9668 5.50874 22.3643C4.49076 21.9592 3.7065 21.175 3.29619 20.1518C2.68851 18.6196 2.82875 14.984 2.82875 13.2908C2.82875 11.5976 2.69371 7.95679 3.29619 6.42982C3.7013 5.41183 4.48556 4.62757 5.50874 4.21726C7.04091 3.60959 10.6766 3.74982 12.3697 3.74982C14.0629 3.74982 17.7037 3.61478 19.2307 4.21726C20.2487 4.62238 21.033 5.40664 21.4433 6.42982C22.0509 7.96198 21.9107 11.5976 21.9107 13.2908C21.9107 14.984 22.0509 18.6248 21.4433 20.1518Z" fill="white" />
    </g>
    <defs>
        <clipPath id="clip0_3321_10908">
            <rect width="23.2682" height="26.5922" fill="white" transform="translate(0.730469)" />
        </clipPath>
    </defs>
</svg>