<svg width="28" height="27" viewBox="0 0 28 27" fill="none"
    xmlns="http://www.w3.org/2000/svg">
    <g clip-path="url(#clip0_3321_10910)">
        <path d="M24.7259 7.8796C24.7428 8.11581 24.7428 8.35208 24.7428 8.58829C24.7428 15.7931 19.259 24.0947 9.2363 24.0947C6.14849 24.0947 3.28006 23.2004 0.867188 21.6482C1.30591 21.6988 1.72769 21.7156 2.18329 21.7156C4.7311 21.7156 7.07651 20.8551 8.94944 19.3872C6.55345 19.3365 4.54553 17.7673 3.85372 15.6075C4.19121 15.6581 4.52865 15.6919 4.88302 15.6919C5.37233 15.6919 5.86169 15.6244 6.31723 15.5063C3.82001 15.0001 1.94703 12.8066 1.94703 10.1575V10.09C2.67255 10.495 3.51628 10.7481 4.41049 10.7818C2.94252 9.80312 1.98079 8.13269 1.98079 6.24288C1.98079 5.23051 2.25071 4.30248 2.72319 3.49256C5.40604 6.79971 9.43875 8.95944 13.9607 9.1957C13.8764 8.79074 13.8257 8.36896 13.8257 7.94712C13.8257 4.94366 16.2555 2.49707 19.2758 2.49707C20.845 2.49707 22.2623 3.15512 23.2579 4.21813C24.4896 3.98192 25.6707 3.52632 26.7169 2.90203C26.3119 4.16755 25.4513 5.23056 24.3209 5.90544C25.4176 5.78738 26.4806 5.4836 27.4593 5.06181C26.717 6.14165 25.7889 7.10339 24.7259 7.8796Z" fill="white" />
    </g>
    <defs>
        <clipPath id="clip0_3321_10910">
            <rect width="26.5922" height="26.5922" fill="white" transform="translate(0.867188)" />
        </clipPath>
    </defs>
</svg>